# Blender 4.1.1
# www.blender.org
mtllib corner.mtl
o Cube
v 0.500000 0.450000 -0.500000
v 0.450000 0.450000 0.500000
v 0.450000 -0.450000 0.500000
v -0.500000 0.450000 -0.450000
v -0.500000 -0.450000 -0.450000
v -0.450000 0.450000 0.500000
v -0.450000 -0.450000 0.500000
v -0.500000 -0.450000 0.450000
v -0.500000 0.450000 0.450000
v 0.500000 0.450000 0.450000
v 0.500000 -0.500000 0.450000
v -0.450000 -0.500000 -0.500000
v -0.450000 -0.500000 0.450000
v 0.450000 0.500000 -0.450000
v -0.450000 0.500000 0.450000
v 0.450000 0.500000 0.450000
v -0.450000 0.500000 -0.450000
v -0.500000 -0.500000 0.500000
v 0.500000 0.500000 0.500000
v -0.500000 0.500000 0.500000
v 0.500000 -0.500000 0.500000
v -0.450000 0.450000 -0.500000
v -0.500000 -0.500000 -0.500000
v 0.500000 0.500000 -0.500000
v -0.500000 0.500000 -0.500000
v -0.450000 -0.450000 0.450000
v -0.450000 0.450000 0.450000
v 0.450000 0.450000 -0.450000
v 0.450000 0.450000 0.450000
v 0.450000 -0.450000 0.450000
v -0.450000 -0.450000 -0.450000
v -0.450000 0.450000 -0.450000
vn -1.0000 -0.0000 -0.0000
vn -0.0000 1.0000 -0.0000
vn -0.0000 -0.0000 1.0000
vn 1.0000 -0.0000 -0.0000
vn -0.0000 -1.0000 -0.0000
vn -0.0000 -0.0000 -1.0000
vt 0.387500 0.762500
vt 0.612500 0.762500
vt 0.387500 0.237500
vt 0.387500 0.012500
vt 0.637500 0.512500
vt 0.862500 0.512500
vt 0.612500 0.987500
vt 0.387500 0.987500
vt 0.625000 1.000000
vt 0.375000 1.000000
vt 0.375000 0.750000
vt 0.625000 0.750000
vt 0.375000 0.250000
vt 0.375000 0.000000
vt 0.612500 0.012500
vt 0.625000 0.000000
vt 0.387500 0.737500
vt 0.612500 0.737500
vt 0.612500 0.237500
vt 0.625000 0.250000
vt 0.612500 0.512500
vt 0.625000 0.500000
vt 0.137500 0.512500
vt 0.137500 0.737500
vt 0.125000 0.750000
vt 0.125000 0.500000
vt 0.637500 0.737500
vt 0.862500 0.737500
vt 0.875000 0.750000
vt 0.362500 0.737500
vt 0.875000 0.500000
vt 0.612500 0.262500
vt 0.387500 0.262500
vt 0.612500 0.487500
s 0
usemtl Material
f 3/1/1 2/2/1 29/2/1 30/1/1
f 5/3/2 8/4/2 26/4/2 31/3/2
f 14/5/3 17/6/3 32/6/3 28/5/3
f 6/7/4 7/8/4 26/8/4 27/7/4
f 7/8/3 6/7/3 20/9/3 18/10/3
f 2/2/3 3/1/3 21/11/3 19/12/3
f 6/7/3 2/2/3 19/12/3 20/9/3
f 3/1/3 7/8/3 18/10/3 21/11/3
f 8/4/1 5/3/1 23/13/1 18/14/1
f 9/15/1 8/4/1 18/14/1 20/16/1
f 11/17/4 10/18/4 19/12/4 21/11/4
f 5/3/1 4/19/1 25/20/1 23/13/1
f 10/18/4 1/21/4 24/22/4 19/12/4
f 4/19/1 9/15/1 20/16/1 25/20/1
f 12/23/5 13/24/5 18/25/5 23/26/5
f 16/27/2 15/28/2 20/29/2 19/12/2
f 14/5/2 16/27/2 19/12/2 24/22/2
f 13/24/5 11/30/5 21/11/5 18/25/5
f 15/28/2 17/6/2 25/31/2 20/29/2
f 17/6/2 14/5/2 24/22/2 25/31/2
f 22/32/6 12/33/6 23/13/6 25/20/6
f 1/34/6 22/32/6 25/20/6 24/22/6
f 13/24/4 12/23/4 31/23/4 26/24/4
f 2/2/5 6/7/5 27/7/5 29/2/5
f 8/4/6 9/15/6 27/15/6 26/4/6
f 7/8/2 3/1/2 30/1/2 26/8/2
f 10/18/6 11/17/6 30/17/6 29/18/6
f 15/28/6 16/27/6 29/27/6 27/28/6
f 4/19/3 5/3/3 31/3/3 32/19/3
f 16/27/1 14/5/1 28/5/1 29/27/1
f 12/33/4 22/32/4 32/32/4 31/33/4
f 1/21/5 10/18/5 29/18/5 28/21/5
f 11/30/6 13/24/6 26/24/6 30/30/6
f 22/32/5 1/34/5 28/34/5 32/32/5
f 9/15/5 4/19/5 32/19/5 27/15/5
f 17/6/4 15/28/4 27/28/4 32/6/4
